inDegrees=no
num_controls=7
num_derivatives=13
num_iterations=130
num_multipliers=7
num_parameters=0
num_slacks=7
num_states=26
objective=0.477041
objective_accelerations=0.044334
objective_balance=0.003634
objective_effort=0.040561
objective_height=0.382841
objective_ligament=0.005671
solver_duration=1802.729960
status=Solve_Succeeded
success=true
DataType=double
version=3
OpenSimVersion=4.5
endheader
time	/jointset/ground_pelvis/pelvis_tilt/value	/jointset/ground_pelvis/pelvis_tx/value	/jointset/ground_pelvis/pelvis_ty/value	/jointset/hip_l/hip_flexion_l/value	/jointset/hip_l/hip_adduction_l/value	/jointset/hip_l/hip_rotation_l/value	/jointset/back/lumbar_extension/value	/jointset/patellofemoral_l/patellar_flexion_l/value	/jointset/knee_l/knee_flexion_l/value	/jointset/knee_l/knee_adduction_l/value	/jointset/knee_l/knee_rotation_l/value	/jointset/ankle_l/ankle_angle_l/value	/jointset/subtalar_l/subtalar_angle_l/value	/jointset/ground_pelvis/pelvis_tilt/speed	/jointset/ground_pelvis/pelvis_tx/speed	/jointset/ground_pelvis/pelvis_ty/speed	/jointset/hip_l/hip_flexion_l/speed	/jointset/hip_l/hip_adduction_l/speed	/jointset/hip_l/hip_rotation_l/speed	/jointset/back/lumbar_extension/speed	/jointset/patellofemoral_l/patellar_flexion_l/speed	/jointset/knee_l/knee_flexion_l/speed	/jointset/knee_l/knee_adduction_l/speed	/jointset/knee_l/knee_rotation_l/speed	/jointset/ankle_l/ankle_angle_l/speed	/jointset/subtalar_l/subtalar_angle_l/speed	/forceset/tau_hip_flexion_l	/forceset/tau_hip_adduction_l	/forceset/tau_hip_rotation_l	/forceset/tau_knee_flexion_l	/forceset/tau_ankle_angle_l	/forceset/tau_subtalar_angle_l	/forceset/tau_lumbar_extension	lambda_cid13_p0	lambda_cid13_p1	lambda_cid13_p2	lambda_cid13_p3	lambda_cid13_p4	lambda_cid13_p5	lambda_cid14_p0	/jointset/ground_pelvis/pelvis_tilt/accel	/jointset/ground_pelvis/pelvis_tx/accel	/jointset/ground_pelvis/pelvis_ty/accel	/jointset/hip_l/hip_flexion_l/accel	/jointset/hip_l/hip_adduction_l/accel	/jointset/hip_l/hip_rotation_l/accel	/jointset/back/lumbar_extension/accel	/jointset/patellofemoral_l/patellar_flexion_l/accel	/jointset/knee_l/knee_flexion_l/accel	/jointset/knee_l/knee_adduction_l/accel	/jointset/knee_l/knee_rotation_l/accel	/jointset/ankle_l/ankle_angle_l/accel	/jointset/subtalar_l/subtalar_angle_l/accel	gamma_cid13_p0	gamma_cid13_p1	gamma_cid13_p2	gamma_cid13_p3	gamma_cid13_p4	gamma_cid13_p5	gamma_cid14_p0
0.5	-0.09518719473536927	-0.04209895148338222	0.8065361176145045	0.9318170196149825	-0.3294643465722704	-0.07905457425403191	-0.7913404027074572	0.9213117600441797	0.9213117600441837	-0.1026904363110759	-0.1744260760536497	0.1488542508737081	0.0135163047463153	-0.130309707787868	-0.1583650817300086	-0.416298375034812	1.59919363007796	-0.03061847777837408	0.5628974057612443	-0.8354388145339581	1.778357321997784	1.778357321997785	0.1482729765203019	0.0004022605024745453	0.4301805874767232	0.1132156169493022	-0.2720238697612996	0.02788984112629245	-0.004918904327059334	-0.247687113232922	0.08813291662188212	0.0398219425357507	0.3283228129937948	-16.00537866884066	-15.85375095742912	3.628382787951487	-9.344196301730889	-701.9611327293005	-69.34920702265202	-9.750248609419074	0.2745095982012177	0.6750796308747635	-0.1893733174488796	-1.515293901523779	0.3161852095565318	-0.4566981752158064	1.923563123013826	-1.440038508470684	-1.440038508470688	-0.2879343491029869	0.01454593190967187	-0.2742225873902746	0.3167588335523716	-2.548921941831754e-07	-1.595241653615431e-07	1.525658823545683e-06	1.41964782134688e-07	-2.780813776871062e-07	-8.698033638858944e-08	-2.181275837924287e-07
0.51	-0.09647636063446108	-0.04364881908874638	0.8023645999477752	0.9477307987972533	-0.3297554302427517	-0.07344826285799806	-0.7995977348165848	0.9390206080159149	0.939020608015914	-0.1012239490117637	-0.1744216014585894	0.1531413585010123	0.0146631802616453	-0.1275023410723199	-0.1516068472918637	-0.4179092612302547	1.583342173917103	-0.02759433228852935	0.5582260644976857	-0.8159394910971619	1.763162879596241	1.763162879596241	0.1450964001363416	0.000456010573626055	0.4271762326052732	0.1161485664995394	-0.2782891861245755	0.0282408192668764	-0.005069037977085968	-0.2512977572975005	0.0870930387547877	0.03989609800633957	0.3346119474696041	-16.60314490792035	-15.71212668708393	3.526799600020249	-9.129725000747177	-706.553514860374	-69.17331207248046	-9.02841036668921	0.2869962261783667	0.6764624706599028	-0.1326152254735616	-1.653107500793298	0.295912651956749	-0.4933747910645986	1.976334383174013	-1.596513054534135	-1.596513054534286	-0.3217282353530647	-0.00440881195763094	-0.3232457824355869	0.2797700238908277	-2.453380012825248e-07	-1.551650463142957e-07	1.485967431532962e-06	1.371844315457885e-07	-2.642529762518119e-07	-5.797439842865877e-08	-2.135129939124344e-07
0.52	-0.09773682366280803	-0.04513105092565398	0.7981798396281151	0.9634794562124303	-0.330016195771683	-0.06789286941242755	-0.8076574302055122	0.9565700383739271	0.9565700383739214	-0.09978706926675322	-0.1744176290341526	0.1573964818105194	0.01583902667410395	-0.1245691336389015	-0.1448379280386967	-0.4189469056209613	1.566169276659178	-0.02455484946835301	0.5527138156685785	-0.7959114704939056	1.746473799253178	1.746473799253176	0.142351465659961	0.0003018263777578459	0.4237837239172946	0.1190097963750343	-0.2845545024878514	0.02859179740746036	-0.00521917162711261	-0.254908401362079	0.08605316088769327	0.03997025347692844	0.3409010819454134	-17.20304302128278	-15.57048511532324	3.425621904394391	-8.959027646753329	-711.2087419553179	-69.04958662579082	-8.308711120493166	0.2996777417752711	0.6772165938791879	-0.07472495650167145	-1.779582120937474	0.3192526756228552	-0.6248796883255326	2.029302556305812	-1.738966096774794	-1.738966096774793	-0.2016059675870339	-0.02704092149415789	-0.3518533506959577	0.3024148986039332	-2.396393543024166e-07	-1.853048637200823e-07	1.429084707724243e-06	1.283366036743308e-07	-2.575209184197066e-07	-4.800247912104577e-08	-2.108681409046787e-07
0.53	-0.09896731172596045	-0.04654559453960087	0.793987589700703	0.979049788497463	-0.3302467469249379	-0.06239567275212923	-0.8155144342034235	0.9739451748651712	0.9739451748651642	-0.09837665779536095	-0.1744157779270326	0.1616157278608198	0.01704279118702252	-0.1215061751342261	-0.1380741131210521	-0.4194054283904106	1.547677304320528	-0.02157585194767443	0.546719133682121	-0.775422972441008	1.728310496652987	1.728310496652987	0.1396688998603328	9.159303339856342e-05	0.4200001807926814	0.1217003125940438	-0.2905078386814989	0.02879939469727831	-0.005304092628995592	-0.2586713816308209	0.08509927182429756	0.03988794230210318	0.3468791475499377	-17.77711956588719	-15.35669872829667	3.30298922374852	-8.708697296910662	-715.7398432397179	-68.83107646224954	-7.596221441734281	0.3129281357612533	0.6754909230033107	-0.01681901348399668	-1.9170154937058	0.2839680390966107	-0.5879125152718013	2.068576926883259	-1.891420797251956	-1.891420797251884	-0.3108852144721532	-0.01425773301673861	-0.4014023941342482	0.2458190984775351	-2.297319832175036e-07	-1.796236980140444e-07	1.383223399419688e-06	1.235643367520134e-07	-2.451398091532763e-07	-2.320052738100602e-08	-2.051174529784208e-07
0.54	-0.1001665055578766	-0.04789259460791207	0.7897936739303328	0.9944285989184337	-0.3304481591532248	-0.05695865292398865	-0.8231645625213855	0.9911313966392911	0.9911313966392826	-0.09699493264762923	-0.1744152777917782	0.165795178959716	0.0182721506851168	-0.1183102873916478	-0.1313292189115586	-0.4192800742125575	1.527864903846797	-0.01872706447474575	0.5406784492370257	-0.7545363345040494	1.708690855828364	1.708690855828364	0.1366142009278452	3.163200464227404e-05	0.4158247336364583	0.1241287934101762	-0.2964611748751462	0.02900699198709625	-0.005389013630878418	-0.2624343618995572	0.08414538276090185	0.0398056311272777	0.3528572131544848	-18.35302688726528	-15.14565631620842	3.18429546470022	-8.506699818528229	-720.3247443173633	-68.66744716889265	-6.914138143680479	0.3262635893558431	0.6734324522489806	0.0420504329587829	-2.043667747953746	0.2932106660728754	-0.6340801800531005	2.108930533118005	-2.030233741661388	-2.03023374166137	-0.2760325941590766	0.003013541626440696	-0.4302341570179491	0.2500078180285107	-2.151681514208915e-07	-1.343108063119448e-07	1.349555997630377e-06	1.233012010925747e-07	-2.265086855339757e-07	1.80091198161869e-08	-1.959305221636073e-07
0.55	-0.1013331391018159	-0.04917231082382815	0.7856039264271816	1.009602933063486	-0.330621558001058	-0.05158284763139826	-0.8306039846715653	1.008114361590378	1.008114361590374	-0.09564482277495424	-0.1744148790407482	0.1699310330327268	0.01952472121826428	-0.1149976967027629	-0.1246238425753601	-0.4185716883068215	1.506797524192111	-0.01596435795019871	0.5344095764206983	-0.7332993971655533	1.687674469597535	1.687674469597535	0.1334180990276163	4.028580941824134e-05	0.4112883560289305	0.1263554173626817	-0.3021123519144929	0.02913032209939961	-0.005441198617741495	-0.2662353433642773	0.08310572388703896	0.03959951820653765	0.3585022151376754	-18.95456939484245	-14.87230507426164	3.051037126995223	-8.180433601758862	-724.7298293042537	-68.42862958871105	-6.267393316115014	0.3365457266401064	0.667642110284176	0.09985011675909777	-2.168959272506889	0.2658695773270429	-0.6344190214248292	2.138380089167176	-2.171452598610603	-2.171452598610621	-0.3398571199712641	-0.001118234002896861	-0.4739954629622626	0.2043665652769302	-1.991968460318799e-07	-8.546951453275544e-08	1.306284599290014e-06	1.225836776353293e-07	-2.075092775529808e-07	5.650376650011661e-08	-1.848879733078851e-07
